# AST/ASF file generated using VICON BodyLanguage
# -----------------------------------------------
:version 1.10
:name VICON
:units
  mass 1.0
  length 0.45
  angle deg
:documentation
   .ast/.asf automatically generated from VICON data using
   VICON BodyBuilder and BodyLanguage model FoxedUp or BRILLIANT.MOD
:root
   order TX TY TZ RX RY RZ
   axis XYZ
   position 0 0 0  
   orientation 0 0 0 
:bonedata
  begin
     id 1 
     name lhipjoint
     direction 0.596438 -0.722117 0.35044 
     length 2.43043 
     axis 0 0 0  XYZ
  end
  begin
     id 2 
     name lfemur
     direction 0.34202 -0.939693 0  
     length 7.0339  
     axis 0 0 20  XYZ
    dof rx ry rz
    limits (-160.0 20.0)
           (-70.0 70.0)
           (-60.0 70.0)
  end
  begin
     id 3 
     name ltibia
     direction 0.34202 -0.939693 0   
     length 7.56602   
     axis 0 0 20   XYZ
    dof rx
    limits (-10.0 170.0)
  end
  begin
     id 4 
     name lfoot
     direction 0.0985677 -0.270812 0.957572   
     length 1.85172   
     axis -90 7.62852e-016 20   XYZ
    dof rx rz
    limits (-45.0 90.0)
           (-70.0 20.0)
  end
  begin
     id 5 
     name ltoes
     direction 1.53534e-011 -4.21843e-011 1   
     length 0.929904   
     axis -90 7.62852e-016 20   XYZ
    dof rx
    limits (-90.0 20.0)
  end
  begin
     id 6 
     name rhipjoint
     direction -0.585088 -0.729594 0.354068   
     length 2.40552  
     axis 0 0 0  XYZ 
  end
  begin
     id 7 
     name rfemur
     direction -0.34202 -0.939693 0   
     length 7.12573   
     axis 0 0 -20   XYZ
    dof rx ry rz
    limits (-160.0 20.0)
           (-70.0 70.0)
           (-70.0 60.0)
  end
  begin
     id 8 
     name rtibia
     direction -0.34202 -0.939693 0   
     length 7.35777   
     axis 0 0 -20   XYZ
    dof rx
    limits (-10.0 170.0)
 end
 begin
     id 9 
     name rfoot
     direction -0.120907 -0.33219 0.935431   
     length 2.0994  
     axis -90 -7.62852e-016 -20   XYZ
    dof rx rz
    limits (-45.0 90.0)
           (-20.0 70.0)
  end
  begin
     id 10 
     name rtoes
     direction -1.53577e-011 -4.21787e-011 1   
     length 1.04244   
     axis -90 -7.62852e-016 -20   XYZ
    dof rx
    limits (-90.0 20.0)
  end
  begin
     id 11 
     name lowerback
     direction 0.00268363 0.993603 -0.112896   
     length 2.15839   
     axis 0 0 0   XYZ
    dof rx ry rz
    limits (-20.0 45.0)
           (-30.0 30.0)
           (-30.0 30.0)
  end
  begin
     id 12 
     name upperback
     direction 0.0272563 0.999411 -0.0208618   
     length 2.16443   
     axis 0 0 0   XYZ
    dof rx ry rz
    limits (-20.0 45.0)
           (-30.0 30.0)
           (-30.0 30.0)
  end
  begin
     id 13 
     name thorax
     direction 0.0254655 0.999174 0.0316806   
     length 2.19003   
     axis 0 0 0   XYZ
    dof rx ry rz
    limits (-20.0 45.0)
           (-30.0 30.0)
           (-30.0 30.0)
  end
  begin
     id 14 
     name lowerneck
     direction -0.0102178 0.988048 0.15381   
     length 1.61507   
     axis 0 0 0   XYZ
    dof rx ry rz
    limits (-20.0 45.0)
           (-30.0 30.0)
           (-30.0 30.0)
  end
  begin
     id 15 
     name upperneck
     direction -0.0061965 0.994088 -0.108398   
     length 1.64042   
     axis 0 0 0   XYZ
    dof rx ry rz
    limits (-20.0 45.0)
           (-30.0 30.0)
           (-30.0 30.0)
  end
  begin
     id 16
     name head
     direction -0.00151929 0.998591 -0.0530385  
     length 1.64343  
     axis 0 0 0   XYZ
    dof rx ry rz
    limits (-20.0 45.0)
           (-30.0 30.0)
           (-30.0 30.0)
  end
  begin
     id 17 
     name lclavicle
     direction 0.948974 0.284245 -0.136574  
     length 3.3483  
     axis 0 0 0   XYZ
    dof ry rz
    limits (-20.0 10.0)
           (0.0 20.0)
  end
  begin
     id 18 
     name lhumerus
     direction 1 -4.48961e-011 1.68576e-027   
     length 4.93485   
     axis -180 -30 -90   XYZ
    dof rx ry rz
    limits (-60.0 90.0)
           (-90.0 90.0)
           (-90.0 90.0)
  end
  begin
     id 19
     name lradius
     direction 1 -4.48965e-011 -2.46405e-027   
     length 3.41719   
     axis -180 -30 -90   XYZ
    dof rx
    limits (-10.0 170.0)
  end
  begin
     id 20
     name lwrist
     direction 1 -4.48968e-011 -8.00486e-028   
     length 1.7086   
     axis 3.27501e-015 90 90   XYZ
    dof ry
    limits (-180.0 0.0)
 end
  begin
     id 21 
     name lhand
     direction 1 -4.48977e-011 -1.60161e-027   
     length 0.6241   
     axis 1.02148e-015 90 90   XYZ
    dof rx rz
    limits (-90.0 90.0)
           (-45.0 45.0)
  end
  begin
     id 22 
     name lfingers
     direction 1 -4.49049e-011 -3.21275e-027   
     length 0.503166   
     axis 2.04295e-015 90 90   XYZ
    dof rx
    limits (0.0 90.0)
  end
  begin
     id 23
     name lthumb
     direction 0.707107 -6.34975e-011 0.707107   
     length 0.722448   
     axis -90 45 -1.62303e-014   XYZ
    dof rx rz
    limits (-45.0 45.0)
           (-45.0 45.0)
  end
  begin
     id 24 
     name rclavicle
     direction -0.904485 0.355099 -0.236246   
     length 3.18329  
     axis 0 0 0   XYZ 
    dof ry rz
    limits (-10.0 20.0)
           (-20.0 0.0)
  end
  begin
     id 25 
     name rhumerus
     direction -1 -4.48953e-011 1.32816e-027  
     length 5.22034   
     axis -180 30 90   XYZ
    dof rx ry rz
    limits (-90.0 60.0)
           (-90.0 90.0)
           (-90.0 90.0)
  end
  begin
     id 26 
     name rradius
     direction -1 -4.48965e-011 -3.93727e-027   
     length 3.41809   
     axis -180 30 90   XYZ
    dof rx
    limits (-10.0 170.0)
  end
  begin
     id 27 
     name rwrist
     direction -1 -4.48962e-011 -8.003e-028   
     length 1.70904   
     axis 3.27501e-015 -90 -90   XYZ
    dof ry
    limits (-180.0 0.0)
  end
  begin
     id 28
     name rhand
     direction -1 -4.49008e-011 -1.60365e-027   
     length 0.77534   
     axis 1.02148e-015 -90 -90   XYZ
    dof rx rz
    limits (-90.0 90.0)
           (-45.0 45.0)
  end
  begin
     id 29
     name rfingers
     direction -1 -4.49001e-011 -3.2064e-027   
     length 0.625099   
     axis 2.04295e-015 -90 -90   XYZ
    dof rx
    limits (0.0 90.0)
  end
  begin
     id 30
     name rthumb
     direction -0.707107 -6.34989e-011 0.707107   
     length 0.897521   
     axis -90 -45 1.62303e-014   XYZ
    dof rx rz
    limits (-45.0 45.0)
           (-45.0 45.0)
  end
:hierarchy
  begin
    root lhipjoint rhipjoint lowerback
    lhipjoint lfemur
    lfemur ltibia
    ltibia lfoot
    lfoot ltoes
    rhipjoint rfemur
    rfemur rtibia
    rtibia rfoot
    rfoot rtoes
    lowerback upperback
    upperback thorax
    thorax lowerneck lclavicle rclavicle
    lowerneck upperneck
    upperneck head
    lclavicle lhumerus
    lhumerus lradius
    lradius lwrist
    lwrist lhand lthumb
    lhand lfingers
    rclavicle rhumerus
    rhumerus rradius
    rradius rwrist
    rwrist rhand rthumb
    rhand rfingers
  end

#!OML:ASF \\sashay\E\Suitcase\Project 1\Capture day 1\Session 1\Male1.ASF
:FULLY-SPECIFIED
:DEGREES
470
root 0.857601 17.2567 -9.08283 6.24829 -5.53959 -8.0383
lowerback 0.953914 1.71695 5.3756
upperback -2.21559 2.50626 3.67673
thorax -2.75836 1.17504 0.698547
lowerneck -16.6781 -3.01153 3.2165
upperneck 23.1921 -2.95984 -8.53366
head 9.92616 -2.10281 -3.94838
rclavicle -1.50331e-015 1.82882e-014
rhumerus -19.3249 -27.3782 -72.0045
rradius 20.0457
rwrist -0.301754
rhand -17.7563 32.263
rfingers 7.12502
rthumb 8.50556 2.45434
lclavicle -1.50331e-015 1.82882e-014
lhumerus -37.7547 8.13986 82.6723
lradius 29.2481
lwrist -10.6708
lhand -1.69218 40.1941
lfingers 7.12502
lthumb 23.9686 68.7179
rfemur 15.249 7.33906 32.4269
rtibia -1.27222e-014
rfoot -9.1863 -6.07919
rtoes 8.5606
lfemur -35.6877 -3.71797 -8.34817
ltibia 24.1306
lfoot -13.7133 7.80428
ltoes 5.09669
471
root 0.874689 17.2423 -8.95405 6.21936 -5.62424 -8.23919
lowerback 0.761036 1.73561 5.43929
upperback -2.12399 2.51318 3.81362
thorax -2.55841 1.18353 0.811764
lowerneck -16.8062 -2.91003 3.31377
upperneck 23.206 -2.78077 -8.78707
head 9.96194 -2.04317 -4.03779
rclavicle 1.62631e-014 2.18663e-014
rhumerus -19.0691 -26.879 -71.9373
rradius 20.2724
rwrist -0.734346
rhand -17.7698 32.2367
rfingers 7.12502
rthumb 8.49254 2.42746
lclavicle 1.62631e-014 2.18663e-014
lhumerus -37.5142 8.98417 82.4396
lradius 28.2076
lwrist -11.2711
lhand -1.37957 39.1874
lfingers 7.12502
lthumb 24.2683 67.6714
rfemur 15.7453 7.28605 32.5524
rtibia 9.54166e-015
rfoot -9.00672 -6.01143
rtoes 6.37161
lfemur -35.3262 -4.10821 -8.06022
ltibia 24.2639
lfoot -14.0133 7.1215
ltoes 11.3567
472
root 0.896562 17.23 -8.81609 6.32478 -6.01209 -8.17549
lowerback 0.696707 1.82118 5.33459
upperback -2.16378 2.62207 3.80976
thorax -2.56476 1.23943 0.864562
lowerneck -17.0305 -2.9367 3.24629
upperneck 23.3278 -2.77614 -8.86811
head 10.0489 -2.06071 -4.06742
rclavicle -2.98177e-015 -1.55052e-014
rhumerus -18.8854 -27.0892 -71.8399
rradius 20.3357
rwrist -0.789187
rhand -17.5178 32.5588
rfingers 7.12502
rthumb 8.73564 2.75959
lclavicle -2.98177e-015 -1.55052e-014
lhumerus -38.1488 9.39211 82.2114
lradius 28.293
lwrist -11.5241
lhand -1.46777 39.545
lfingers 7.12502
lthumb 24.1838 68.0403
rfemur 16.1788 7.53745 32.3549
rtibia 2.8625e-014
rfoot -8.87881 -5.98846
rtoes 4.5523
lfemur -35.0097 -4.51849 -7.99387
ltibia 24.4335
lfoot -14.0095 6.731
ltoes 4.74482
473
root 0.912115 17.2216 -8.68693 6.43305 -6.09958 -7.84797
lowerback 0.631533 1.86825 4.9409
upperback -2.37952 2.68282 3.67971
thorax -2.76008 1.27153 0.945925
lowerneck -16.9153 -2.67342 3.58548
upperneck 23.6316 -2.40023 -9.19393
head 10.1517 -1.89513 -4.20524
rclavicle -6.41081e-015 -2.26615e-014
rhumerus -19.1282 -26.4054 -71.7223
rradius 20.5764
rwrist -1.78793
rhand -17.5622 32.7783
rfingers 7.12502
rthumb 8.69279 2.97729
lclavicle -6.41081e-015 -2.26615e-014
lhumerus -38.5726 9.34808 82.0246
lradius 27.7492
lwrist -11.4966
lhand -0.906593 39.9302
lfingers 7.12502
lthumb 24.7217 68.3529
rfemur 16.5064 7.48575 31.8558
rtibia 1.59028e-014
rfoot -8.71595 -5.75646
rtoes 5.23197
lfemur -34.6793 -4.71158 -8.40796
ltibia 24.5675
lfoot -14.6221 6.05472
ltoes 9.98925
474
root 0.945015 17.2116 -8.54118 6.4804 -6.40237 -8.10818
lowerback 0.442639 2.03701 5.37266
upperback -2.40676 2.90092 3.6444
thorax -2.6564 1.37151 0.671826
lowerneck -16.7461 -3.02004 3.62903
upperneck 23.7078 -2.92981 -9.07066
head 10.1054 -2.11922 -4.23176
rclavicle 5.81445e-015 -1.70955e-014
rhumerus -19.2829 -26.8833 -71.4703
rradius 20.746
rwrist -1.61104
rhand -17.4593 32.6846
rfingers 7.12502
rthumb 8.79218 2.88775
lclavicle 5.81445e-015 -1.70955e-014
lhumerus -38.7781 10.172 81.485
lradius 27.0698
lwrist -12.3022
lhand -1.19333 39.5
lfingers 7.12502
lthumb 24.4469 67.9601
rfemur 16.9883 7.67346 31.9845
rtibia -5.40694e-014
rfoot -8.39114 -5.65574
rtoes 3.42744
lfemur -34.1818 -5.05251 -8.14612
ltibia 24.7222
lfoot -15.0166 5.27405
ltoes 10.3341
475
root 0.964097 17.2048 -8.38601 6.5422 -6.79443 -7.68319
lowerback -0.0402458 2.19699 4.94184
upperback -2.33823 3.06033 3.45463
thorax -2.31888 1.46544 0.732295
lowerneck -16.8847 -2.94728 3.6774
upperneck 23.7308 -2.89037 -8.88204
head 10.1459 -2.0758 -4.17297
rclavicle -2.60905e-016 -5.60573e-014
rhumerus -19.21 -27.2869 -71.3433
rradius 20.8216
rwrist -1.52338
rhand -17.305 32.8357
rfingers 7.12502
rthumb 8.94105 3.04519
lclavicle -2.60905e-016 -5.60573e-014
lhumerus -39.0893 10.1145 81.3346
lradius 27.0599
lwrist -12.3159
lhand -0.839468 40.0635
lfingers 7.12502
lthumb 24.7861 68.4773
rfemur 17.4981 7.90594 31.3455
rtibia 1.59028e-014
rfoot -8.28082 -5.57912
rtoes 3.05596
lfemur -33.5943 -5.15791 -8.69362
ltibia 24.7926
lfoot -14.8486 4.57568
ltoes 10.973
476
root 0.995172 17.1928 -8.23846 6.76249 -6.87975 -7.71928
lowerback -0.159041 2.14179 5.11514
upperback -2.70076 3.0011 3.46424
thorax -2.6213 1.42299 0.645153
lowerneck -16.119 -3.03783 3.37196
upperneck 23.8821 -2.97537 -8.64506
head 10.058 -2.105 -4.02919
rclavicle -3.35775e-014 7.95139e-016
rhumerus -19.616 -27.0915 -70.9994
rradius 20.8504
rwrist -1.40351
rhand -17.1427 33.4342
rfingers 7.12502
rthumb 9.09768 3.65041
lclavicle -3.35775e-014 7.95139e-016
lhumerus -39.9675 10.8932 80.7184
lradius 26.5184
lwrist -13.1286
lhand -0.910875 38.8722
lfingers 7.12502
lthumb 24.7176 67.2954
rfemur 17.7122 7.91104 31.1715
rtibia 7.31528e-014
rfoot -7.95495 -5.36302
rtoes 3.38386
lfemur -33.3596 -5.07653 -8.91789
ltibia 24.8491
lfoot -14.2226 4.01212
ltoes 9.66826
477
root 1.02128 17.1934 -8.08976 6.82333 -6.94938 -7.53809
lowerback -0.580524 2.15657 4.89917
upperback -2.58254 2.97775 3.44395
thorax -2.27086 1.4236 0.763332
lowerneck -16.593 -2.80735 3.78847
upperneck 24.0943 -2.62463 -9.18163
head 10.2334 -1.9764 -4.27457
rclavicle -1.13866e-014 -1.03368e-014
rhumerus -19.1742 -26.8862 -71.0067
rradius 20.6819
rwrist -1.84455
rhand -17.3747 33.1892
rfingers 7.12502
rthumb 8.87382 3.39578
lclavicle -1.13866e-014 -1.03368e-014
lhumerus -39.6722 11.5861 80.4235
lradius 25.7115
lwrist -13.59
lhand 0.0604304 40.3039
lfingers 7.12502
lthumb 25.6483 68.5964
rfemur 18.106 7.84921 30.8122
rtibia 2.54444e-014
rfoot -7.46188 -5.28807
rtoes 0.435324
lfemur -33.0533 -4.95176 -9.42571
ltibia 24.7333
lfoot -12.2048 3.46439
ltoes 6.92504
478
root 1.04737 17.2024 -7.93467 7.06585 -7.25669 -7.01142
lowerback -1.07174 2.28783 4.46957
upperback -2.83501 3.12338 3.16952
thorax -2.25796 1.50065 0.733342
lowerneck -15.6345 -3.1531 3.22232
upperneck 24.1337 -3.20241 -8.17112
head 10.0516 -2.16176 -3.85794
rclavicle 1.4773e-015 -2.06736e-014
rhumerus -19.7533 -27.0338 -70.7422
rradius 21.1211
rwrist -1.91186
rhand -17.0062 33.1299
rfingers 7.12502
rthumb 9.22933 3.3519
lclavicle 1.4773e-015 -2.06736e-014
lhumerus -40.434 12.1547 79.6972
lradius 25.4006
lwrist -14.522
lhand -0.285061 39.5286
lfingers 7.12502
lthumb 25.3173 67.8683
rfemur 18.2853 8.03114 29.9914
rtibia 4.77083e-014
rfoot -7.02462 -5.0895
rtoes 1.98804
lfemur -32.9213 -5.00016 -10.1363
ltibia 24.5002
lfoot -10.91 3.54896
ltoes 4.86385
479
root 1.06584 17.2071 -7.79391 6.90382 -7.27187 -6.92917
lowerback -0.840949 2.32541 4.49348
upperback -2.90948 3.19199 3.05571
thorax -2.45561 1.52902 0.591069
lowerneck -15.633 -3.42778 3.10027
upperneck 24.5043 -3.60024 -7.95894
head 10.1646 -2.33226 -3.82612
rclavicle 1.19519e-014 1.19271e-014
rhumerus -19.8372 -28.0857 -70.4696
rradius 20.9138
rwrist -1.1234
rhand -17.1693 33.0679
rfingers 7.12502
rthumb 9.07197 3.283
lclavicle 1.19519e-014 1.19271e-014
lhumerus -40.7338 12.265 79.3503
lradius 24.9814
lwrist -14.5955
lhand -0.106294 39.5628
lfingers 7.12502
lthumb 25.4886 67.8782
rfemur 18.9615 7.88209 29.8022
rtibia 3.18055e-015
rfoot -6.36761 -4.85289
rtoes 1.12091
lfemur -32.4265 -4.79162 -10.5095
ltibia 24.252
lfoot -9.6702 3.3207
ltoes 4.86199
480
root 1.09267 17.2181 -7.6458 7.00965 -7.31398 -6.02791
lowerback -1.27833 2.3039 3.59992
upperback -2.89741 3.12735 2.82769
thorax -2.22962 1.5181 0.871635
lowerneck -15.9201 -3.74127 3.17958
upperneck 24.8075 -4.02064 -8.11692
head 10.2941 -2.54157 -3.97082
rclavicle 5.63508e-015 3.97569e-015
rhumerus -19.7097 -27.3106 -70.5721
rradius 21.2668
rwrist -2.27355
rhand -16.9129 32.9068
rfingers 7.12502
rthumb 9.31941 3.13279
lclavicle 5.63508e-015 3.97569e-015
lhumerus -40.6242 12.6678 79.0735
lradius 24.3068
lwrist -14.8173
lhand -0.0180545 40.0804
lfingers 7.12502
lthumb 25.5731 68.3836
rfemur 19.1585 7.7476 28.626
rtibia 0
rfoot -5.43164 -4.77846
rtoes 1.20442
lfemur -31.982 -4.89611 -11.665
ltibia 23.6959
lfoot -8.25243 3.45303
ltoes 5.23794
